<svg xmlns="http://www.w3.org/2000/svg" version="1.1" xmlns:xlink="http://www.w3.org/1999/xlink" width="1500" height="1500" viewBox="0 0 1500 1500"><rect width="1500" height="1500" x="0" y="0" id="background" stroke="transparent" fill="#000000"></rect><svg xml:space="preserve" width="1000" height="1000" data-version="2" data-id="lg_8Q196JVnwEWuimKliv" viewBox="0 0 359 291" x="250" y="250"><rect width="100%" height="100%" fill="transparent"></rect><path fill="#c1c1c1" d="M81.081 119.725q28.43-26.68 50.9-44.58-18.26-1.05-54.76-4.56 2.81 26.68 3.86 49.14m121.8-89.86q4.56 3.16 4.56 8.43 0 12.63-21.23 32.82-21.24 20.18-60.2 51.07-20.36 16.14-30.71 24.92-10.36 8.77-12.82 13.34-1.75 3.15-2.45 7.37-.7 4.21-.7 8.95 0 4.74-.36 7.89-2.45 17.2-5.61 30.19-3.16 12.99-7.2 22.82-4.03 9.82-11.05 17.55-4.57 5.26-10.53 9.65-5.97 4.39-11.24 4.39-11.93 0-11.93-19.31 0-6.32 1.23-14.57 1.23-8.24 1.58-10.7l1.75-11.23q-7.72 6.31-14.04 6.31-4.21 0-6.31-2.8-2.11-2.81-2.11-7.73 0-7.02 3.86-14.39 3.16-6.31 11.23-15.09 6.32-7.37 8.95-11.41 2.64-4.03 3.69-8.95 2.81-17.9 2.81-34.4 0-13.33-1.41-23.51-1.05-8.43-3.16-16.5-.35-1.75-2.1-10.71-1.76-8.95-1.76-16.67 0-37.2 42.12-37.2 4.57 0 13.69.7 22.47 2.1 53.7 2.81l10.89.35 25.62-.35q22.11 0 31.24 5.96"></path><rect width="203.93" height="248.86" x="-101.97" y="-124.43" fill="none" rx="0" ry="0" transform="translate(105.98 145.32)"></rect><path fill="#c1c1c1" d="M345.031 198.695q5.97 43.88 8.78 61.43 1.4 8.77-7.72 15.44-9.13 6.67-19.31 6.67-5.97 0-9.83-2.63-3.86-2.63-4.56-8.25l-2.81-22.81q-4.91-38.61-8.07-57.92-1.76-11.23-4.92-18.78-3.15-7.54-10.17-11.4-4.57-2.11-10.53-2.11-7.38 0-16.5 2.46-6.32 52.65-20.71 107.75-1.76 7.37-12.46 12.81-10.71 5.45-20.53 5.45-6.32 0-9.48-2.29-3.16-2.28-1.76-7.19 15.45-55.46 22.12-110.92-7.02 0-12.29-2.63-5.26-2.63-5.26-6.84 0-4.92 7.02-9.83l13.69-9.83q2.8-31.24 2.8-70.9 0-22.47-1.05-44.93-.35-7.02 9.13-12.64 9.47-5.61 19.65-5.61 5.62 0 9.3 2.28 3.69 2.28 4.04 7.19 1.4 23.87 1.4 53.01 0 25.27-.7 37.55 12.64-11.23 24.57-23.51l10.53-10.18q4.92-4.57 11.23-7.55 6.32-2.98 12.64-2.98 3.86 0 8.42 1.93 4.57 1.93 4.57 5.44 0 2.1-1.41 3.86-21.41 30.18-62.47 62.13 11.58-2.46 20.7-2.46 25.63 0 38.26 16.85 5.62 7.37 7.9 15.97 2.28 8.6 3.34 17.02 1.05 8.42 1.4 11.58Z"></path><rect width="160.93" height="283.61" x="-80.47" y="-141.81" fill="none" rx="0" ry="0" transform="translate(274.52 145.5)"></rect></svg></svg>